<?xml version="1.0" standalone="no"?>
<!DOCTYPE svg PUBLIC "-//W3C//DTD SVG 20010904//EN"
 "http://www.w3.org/TR/2001/REC-SVG-20010904/DTD/svg10.dtd">
<svg version="1.0" xmlns="http://www.w3.org/2000/svg"
 width="231.000000pt" height="125.000000pt" viewBox="0 0 231.000000 125.000000"
 preserveAspectRatio="xMidYMid meet">
<metadata>
Created by potrace 1.14, written by Peter Selinger 2001-2017
</metadata>
<g transform="translate(0.000000,0.000000) scale(1.00000,1.00000)"
fill="#FFFFFF" stroke="none">
<path d="M0 0 l216 -132.5,15 0,0 132.5,0 132.5,-15 0,-15 0,0 -132.5z"/>
</g>
<g transform="translate(0.000000,125.000000) scale(0.100000,-0.100000)"
fill="#FFFFFF" stroke="none">
<path d="M0 625 l0 -627 42 25 c95 55 837 467 852 473 14 5 16 -21 18 -244 l3
-250 535 300 c294 164 545 304 557 311 21 11 -24 38 -535 323 l-557 312 -3
-250 c-2 -223 -4 -249 -18 -244 -15 6 -757 418 -851 473 l-43 25 0 -627z"/>
</g>
</svg>
